<svg width="35" height="35" viewBox="0 0 35 35" fill="none" xmlns="http://www.w3.org/2000/svg">
<g id="home-01">
<g id="Icon">
<path d="M4.375 13.7317C4.375 13.193 4.64919 12.6877 5.11083 12.3755L16.4858 4.68296C17.093 4.27235 17.907 4.27235 18.5142 4.68296L29.8892 12.3755C30.3508 12.6877 30.625 13.193 30.625 13.7317V28.1286C30.625 29.5073 29.4497 30.625 28 30.625H7C5.55025 30.625 4.375 29.5073 4.375 28.1286V13.7317Z" stroke="#FFC72C" stroke-width="2"/>
<path d="M20.7812 19.1406C20.7812 20.9528 19.3122 22.4219 17.5 22.4219C15.6878 22.4219 14.2188 20.9528 14.2188 19.1406C14.2188 17.3284 15.6878 15.8594 17.5 15.8594C19.3122 15.8594 20.7812 17.3284 20.7812 19.1406Z" stroke="#FFC72C" stroke-width="2"/>
</g>
</g>
</svg>
